<svg xmlns="http://www.w3.org/2000/svg" xmlns:xlink="http://www.w3.org/1999/xlink" viewBox="0 0 640 560" width="640" height="560"><defs><path d="M593.26 384.89V371.8c0-32.26-8.89-63.9-25.7-91.44-11.09-18.18-35.29-57.84-50.54-82.83a11.202 11.202 0 0 1 2.19-14.27c14.81-12.95 47.1-41.21 60.65-53.07 6.23-5.45 16-2.55 18.26 5.4 3.96 13.92 5.59 19.66 8.2 28.86 7.64 26.9 9.93 55.04 6.75 82.83-3.05 26.7-11.08 96.81-15.06 131.54-.15 1.29-.43 2.56-.84 3.79-.81 2.46-.88 2.67-1.26 3.8-.49 1.49-2.69 1.11-2.67-.46 0-.14.01-.49.02-1.06z" id="a"/><path d="M418.64 18.36a487.694 487.694 0 0 0-221 19.75c-18.73 6.17-11.64 3.83-41.6 13.71a166.365 166.365 0 0 0-83.66 61.86c-6.46 9.13.73-1.03-7 9.89a181.273 181.273 0 0 0-31.5 79.13c-1.72 12.09-.05.36-1.61 11.29-4.64 32.58-4.41 65.67.68 98.19 3.24 20.65 8.4 53.55 12.42 79.2.36 2.31 3.77 2.04 3.77-.3v-41.97c0-26.05 6.39-51.71 18.61-74.71 10.46-19.68-3.72 7.01 0 0 31.26-58.82 96.53-91.16 162.26-80.4 15.6 2.55-14.18-2.32 9.77 1.6 45.17 7.39 91.24 7.44 136.42.12 24.39-3.94 67.85-10.97 101.87-16.48a70.616 70.616 0 0 0 35.3-16.64c12.15-10.67 33.43-29.35 45.6-40.04 8.26-7.25 8.82-19.9 1.24-27.85-12.42-13.03 1.18 1.24-2-2.1a250.532 250.532 0 0 0-146.32-75.2c-21.21-3 22.64 3.19 6.75.95z" id="b"/><path d="M191.96 334.35a25.48 25.48 0 0 0-19.31-3.39c-14.74 3.3-49.23 11.03-64.13 14.36a53.139 53.139 0 0 0-17.77 7.58c-3.2 2.12-7.85 5.21-11.86 7.86-1.17.78-2.62-.47-2.02-1.75 1.83-3.89 2.85-6.05 4.1-8.69a32.722 32.722 0 0 1 15.89-15.76c17.23-7.93 49.07-22.6 64.05-29.5a53.9 53.9 0 0 1 44.37-.34c14.63 6.47 46.9 20.73 64.19 28.38 5.69 2.52 9.97 7.45 11.67 13.44 1.1 3.9 2.31 8.16 3.55 12.57.89 3.13-1.88 6.09-5.07 5.41-12.15-2.6-35.01-7.48-45.52-9.72a86.096 86.096 0 0 1-28.38-11.65c-4.54-2.9-8.38-5.36-13.76-8.8z" id="c"/><path d="M443 360.08a91.427 91.427 0 0 1 30.29-.88c13.2 1.83 45.32 6.27 60.46 8.37 3.67.5 7.22 1.65 10.49 3.39 5.18 2.74 16.6 8.8 21.99 11.66.87.47 1.76-.6 1.14-1.38-3.92-4.93-11.75-14.77-15.37-19.33a20.824 20.824 0 0 0-10.86-7.13c-19.09-5.14-62.04-16.7-79.2-21.32-10.8-2.91-21.91-4.54-33.09-4.84-8.92-.25-26.17-.72-36.92-1.01-4.8-.13-9.33 2.18-12.04 6.14-4.23 6.17-13.17 19.23-17.55 25.63-1.53 2.22.06 5.24 2.76 5.24h41.41c8.98 0 17.93-.88 26.73-2.62 4.97-.98 5.16-1.02 9.76-1.92z" id="d"/><path d="M104.73 413.22c-8.03 24.65-13.04 40.05-15.05 46.21-.25.75-1.35.61-1.4-.18-.53-8.59-1.71-27.9-2.2-35.82a8.472 8.472 0 0 0-7.54-7.91c-1.46-.16 1.53.17.13.02a8.35 8.35 0 0 1-7.44-8.3v-10.06c0-5.42 4.29-9.87 9.71-10.07 3.2-.12 2.3-.08 5.3-.19l21.33-.81c4.66-.19 16.33-.64 35-1.37l-37.84 28.48z" id="e"/><path d="M95.54 474.8c.71 6.13 1.98 12.18 3.79 18.08 2.31 7.54-.55-1.78 0 0 7.05 22.97 26.88 39.7 50.71 42.77 7.39.95 5.73.74 16.94 2.18 13.29 1.72 26.72 2 40.06.84 7.06-.61.94-.08 6.19-.54a60.14 60.14 0 0 0 45.12-26.96c3.02-4.61-3.2 4.89 0 0 10-15.25 17.19-32.17 21.24-49.95 1.73-7.63 1.26-5.54 3.1-13.64 3.39-14.92-2.27-30.44-14.47-39.66-4.38-3.31 4.01 3.03 0 0a96.427 96.427 0 0 0-49.14-19.08c-9.3-.88-4.65-.44-12.63-1.19a224.09 224.09 0 0 0-67.12 3.82c-7.56 1.59 4.08-.85-3.22.68-20.76 4.37-36.6 21.23-39.66 42.22-.63 4.28.24-1.67-.98 6.65-1.42 9.78-1.57 19.71-.43 29.53.31 2.69.05.44.5 4.25z" id="f"/><path d="M282.71 445.85l-5-28.21-14.37-20.48c8.72 4.03 14.18 6.55 16.36 7.55 2.81 1.3 6.16.45 8-2.04.28-.38-.63.85 0 0a4.59 4.59 0 0 1 3.7-1.87h32.49v14.11H301.9l-1.97.05c-1.3.07-2.07.11-2.83.15a8.4 8.4 0 0 0-5.99 3.01c-.82.98 1.13-1.36.83-.99a9.796 9.796 0 0 0-.38 12.08c.21.29-1.85-2.52-1.18-1.6 1.47 2 3.39 3.64 5.6 4.78.98.51.36.18 1.29.66a4.354 4.354 0 0 1 1.99 5.63c-2.76 6.29-9.66 21.99-20.71 47.12l4.16-39.95z" id="g"/><path d="M539.77 413.22c8.03 24.65 13.05 40.05 15.05 46.21.25.75 1.35.61 1.4-.18.53-8.59 1.71-27.9 2.2-35.82a8.472 8.472 0 0 1 7.54-7.91c1.46-.16-1.53.17-.13.02a8.35 8.35 0 0 0 7.44-8.3v-10.06c0-5.42-4.29-9.87-9.71-10.07-3.19-.12-2.3-.08-5.3-.19l-21.33-.79c-5.03-.19-17.6-.65-37.71-1.39l40.55 28.48z" id="h"/><path d="M548.97 474.8c-.72 6.13-1.99 12.18-3.8 18.08-2.31 7.54.55-1.78 0 0-7.04 22.97-26.88 39.7-50.71 42.77-7.39.95-5.72.74-16.94 2.18-13.29 1.72-26.72 2-40.06.84-7.06-.61-.94-.08-6.19-.54a60.14 60.14 0 0 1-45.12-26.96c-3.02-4.61 3.2 4.89 0 0-10-15.25-17.19-32.17-21.24-49.95-1.73-7.63-1.25-5.54-3.1-13.64-3.39-14.92 2.27-30.44 14.47-39.66 4.38-3.31-4.01 3.03 0 0a96.427 96.427 0 0 1 49.14-19.08c9.3-.88 4.65-.44 12.63-1.19 22.44-2.11 45.07-.82 67.13 3.82 7.55 1.59-4.09-.85 3.21.68 20.76 4.37 36.6 21.23 39.66 42.22.63 4.28-.24-1.67.98 6.65 1.43 9.78 1.57 19.71.43 29.53l-.49 4.25z" id="i"/><path d="M361.79 445.85l5-28.21 14.37-20.48c-8.72 4.03-14.18 6.55-16.36 7.55-2.81 1.3-6.16.45-8-2.04-.28-.38.63.85 0 0a4.59 4.59 0 0 0-3.7-1.87h-32.49v14.11h21.99l1.97.05c1.3.07 2.07.11 2.84.15 2.32.13 4.49 1.22 5.98 3.01.82.98-1.13-1.36-.82-.99a9.81 9.81 0 0 1 .37 12.08c-.21.29 1.85-2.52 1.18-1.6-1.47 2-3.39 3.64-5.6 4.78-.98.51-.36.18-1.29.66a4.354 4.354 0 0 0-1.99 5.63c2.76 6.29 9.66 21.99 20.71 47.12l-4.16-39.95z" id="j"/><path d="M560.29 121.26c.44-.35.71-.57.82-.66a49.091 49.091 0 0 0 14.32-18.53c.73-1.65-.98 2.21 0 0a49.23 49.23 0 0 0 4.15-17.25c.27-4.98-.1 1.8 0 0a96.26 96.26 0 0 0-9.57-47.33c-2.18-4.47-2.86-5.87-6.3-12.94-.74-1.51-3.01-.76-2.71.88 1.24 6.81.38 2.1.95 5.2 3.4 18.65.18 37.9-9.09 54.44-2.8 4.99-9.79 17.45-20.98 37.4l28.41-1.21z" id="k"/><path d="M561.86 97.3c-6.22-14.97-10.11-24.33-11.66-28.07a66.17 66.17 0 0 0-31.96-34.02c-4.47-2.19-5.86-2.87-12.93-6.34-1.5-.73-2.83 1.25-1.59 2.36 5.17 4.62 1.6 1.43 3.95 3.52a81.506 81.506 0 0 1 26.27 48.54c.86 5.65 3 19.78 6.43 42.39l21.49-28.38z" id="l"/></defs><use xlink:href="#a" fill="#9d6d4d"/><use xlink:href="#a" fill-opacity="0" stroke="#000" stroke-width="0"/><use xlink:href="#b" fill="#9d6d4d"/><use xlink:href="#b" fill-opacity="0" stroke="#000" stroke-width="0"/><use xlink:href="#c" fill="#9d6d4d"/><use xlink:href="#c" fill-opacity="0" stroke="#000" stroke-width="0"/><use xlink:href="#d" fill="#9d6d4d"/><use xlink:href="#d" fill-opacity="0" stroke="#000" stroke-width="0"/><use xlink:href="#e" fill="#9d6d4d"/><use xlink:href="#f" fill-opacity="0" stroke="#9d6d4d" stroke-width="12"/><use xlink:href="#g" fill="#9d6d4d"/><use xlink:href="#h" fill="#9d6d4d"/><use xlink:href="#i" fill-opacity="0" stroke="#9d6d4d" stroke-width="12"/><use xlink:href="#j" fill="#9d6d4d"/><use xlink:href="#k" fill="#9d6d4d"/><use xlink:href="#l" fill="#9d6d4d"/></svg>